<?xml version="1.0" standalone="no"?>
<!DOCTYPE svg PUBLIC "-//W3C//DTD SVG 20010904//EN"
 "http://www.w3.org/TR/2001/REC-SVG-20010904/DTD/svg10.dtd">
<svg version="1.0" xmlns="http://www.w3.org/2000/svg"
 width="80.000000pt" height="80.000000pt" viewBox="0 0 80.000000 80.000000"
 preserveAspectRatio="xMidYMid meet">
<metadata>
Created by potrace 1.11, written by Peter Selinger 2001-2013
</metadata>
<g transform="translate(0.000000,80.000000) scale(0.100000,-0.100000)"
fill="#000000" stroke="none">
<path d="M169 760 c-2 -148 -22 -279 -54 -356 -13 -32 -18 -36 -45 -32 l-30 5
0 -149 0 -148 41 -40 41 -40 84 0 84 0 0 65 0 66 113 -3 c106 -3 112 -4 109
-23 -1 -12 12 -38 34 -63 l36 -42 91 0 92 0 -2 147 -3 147 -35 36 -35 36 0
177 0 177 -34 37 -34 37 -226 1 -226 0 -1 -35z m431 -15 c0 -28 6 -27 -230
-26 -108 1 -116 2 -139 26 l-26 25 198 0 197 0 0 -25z m43 -5 c16 -19 16 -20
-3 -20 -13 0 -20 7 -20 20 0 11 1 20 3 20 1 0 10 -9 20 -20z m-407 -143 c-3
-56 -8 -113 -11 -127 -3 -14 -7 -36 -10 -48 -2 -13 -11 -46 -20 -73 -14 -42
-20 -49 -43 -49 -28 0 -62 25 -62 46 0 7 6 11 14 8 22 -9 61 104 72 212 4 33
8 66 10 74 1 8 3 37 3 65 l1 50 26 -28 c26 -28 26 -31 20 -130z m362 -75 c2
-157 4 -173 20 -171 53 5 52 8 52 -127 l0 -125 -32 3 c-27 2 -33 7 -31 25 2
18 -3 22 -35 25 -35 3 -37 5 -37 38 l0 35 -168 3 -167 2 0 -65 0 -65 -33 0
-32 0 0 88 c0 86 0 87 25 87 19 0 29 9 43 36 30 61 56 210 56 325 l1 61 168
-1 167 -1 3 -173z m72 14 c0 -163 0 -163 -22 -162 -23 1 -23 3 -26 161 l-2
161 25 2 25 2 0 -164z m-576 -235 c15 -22 20 -47 20 -112 0 -83 0 -84 -26 -87
l-26 -3 0 115 c0 64 3 116 6 116 4 0 16 -13 26 -29z m646 -137 l0 -123 -25 23
c-24 22 -25 28 -25 146 l0 123 25 -23 c24 -23 25 -28 25 -146z m-230 17 l0
-29 -97 0 c-158 0 -143 5 -143 -54 l0 -51 -25 23 c-21 20 -25 33 -25 82 l0 58
145 0 145 0 0 -29z m71 -61 c1 -5 2 -21 2 -35 0 -14 -1 -30 -2 -37 -2 -20 -44
33 -47 58 -2 19 2 24 22 24 13 0 25 -4 25 -10z m-343 -73 l27 -27 -66 0 c-60
0 -68 3 -94 30 l-29 31 67 -4 c58 -3 72 -7 95 -30z m442 20 c8 -7 21 -20 29
-29 12 -17 9 -18 -45 -18 -58 0 -59 0 -59 29 -1 26 3 29 30 29 17 0 37 -5 45
-11z"/>
</g>
</svg>
